<?xml version="1.0" encoding="utf-8"?>
<!-- Generator: Adobe Illustrator 22.0.0, SVG Export Plug-In . SVG Version: 6.00 Build 0)  -->
<svg version="1.1" id="Ebene_1" xmlns="http://www.w3.org/2000/svg" xmlns:xlink="http://www.w3.org/1999/xlink" x="0px" y="0px"
	 viewBox="0 0 562.9 105.1" style="enable-background:new 0 0 562.9 105.1;" xml:space="preserve">
<style type="text/css">
	.st0{fill:#3EBCD3;}
	.st1{fill:#8A8A8A;}
</style>
<g>
	<path class="st0" d="M19.3,45.4c0,1.6,0.1,2.8,0.2,3.5s0.3,1.3,0.5,1.8s0.6,0.8,1.1,1.1s1.3,0.6,2.4,0.9v1.8H8.3v-1.8
		c1.5-0.4,2.5-0.8,3-1.3s0.8-1.1,1-2s0.2-2.2,0.2-4V14.2c0-1.7-0.1-2.9-0.2-3.6c-0.1-0.8-0.3-1.3-0.6-1.8c-0.3-0.4-0.6-0.8-1.1-1
		C10.2,7.6,9.4,7.3,8.3,7V5.2h15.2V7c-1.1,0.3-1.8,0.5-2.3,0.8s-0.8,0.6-1.1,1c-0.3,0.4-0.5,1-0.6,1.8s-0.2,2-0.2,3.7V45.4z"/>
	<path class="st0" d="M65.3,6.3v10h-3.6c-0.6-2.1-1.3-3.7-2.2-5s-1.9-2.1-3.1-2.6c-1.2-0.5-2.6-0.8-4.2-0.8c-2.5,0-4.7,0.8-6.6,2.5
		c-1.9,1.6-3.4,4.1-4.6,7.4s-1.7,7.3-1.7,12s0.5,8.7,1.4,12s2.3,5.8,4,7.5s4,2.5,6.6,2.5c2,0,3.6-0.3,4.8-0.8
		c1.2-0.6,2.3-1.5,3.1-2.7c0.9-1.2,1.7-3,2.4-5.4h3.6v10.3c-2.3,0.6-4.6,1-6.9,1.3c-2.4,0.3-5,0.4-7.8,0.4c-6.1,0-10.7-2.1-13.8-6.2
		S32,38.4,32,30.2c0-5.1,0.8-9.6,2.4-13.5s4-6.9,7.1-9s6.9-3.2,11.3-3.2c2.2,0,4.2,0.1,6,0.3C60.9,5.2,63,5.7,65.3,6.3z"/>
	<path class="st0" d="M109.8,37.4c0,2.6-0.2,4.9-0.7,6.8c-0.5,1.8-1.1,3.4-2.1,4.8c-0.8,1.2-1.9,2.3-3.1,3.2s-2.8,1.6-4.5,2.1
		c-1.8,0.5-3.9,0.8-6.3,0.8c-2.9,0-5.4-0.3-7.5-1c-2.1-0.6-3.8-1.7-5.1-3.2s-2.3-3.2-2.9-5.2s-0.9-4.6-0.9-7.6V14.2
		c0-1.9-0.1-3.1-0.2-3.8S76.2,9.2,76,8.8c-0.2-0.4-0.6-0.7-1-1s-1.2-0.6-2.4-0.9V5.2h15.1V7c-1.3,0.3-2.3,0.7-2.8,1.1
		c-0.5,0.4-0.9,1-1.1,1.9s-0.3,2.2-0.3,4.2v25.5c0,2.3,0.2,4.3,0.7,5.9c0.5,1.6,1.2,2.8,2.1,3.7s1.9,1.5,3.2,1.9
		c1.2,0.4,2.7,0.6,4.6,0.6c1.7,0,3.2-0.3,4.4-0.9c1.3-0.6,2.3-1.5,3.2-2.7c0.9-1.2,1.4-2.7,1.7-4.4s0.5-4.1,0.5-7.1V14.2
		c0-2.1-0.1-3.5-0.3-4.3c-0.2-0.8-0.5-1.4-1-1.8c-0.5-0.4-1.4-0.8-2.9-1.2V5.2H114V7c-1.4,0.4-2.3,0.8-2.9,1.2
		c-0.5,0.4-0.9,1.1-1.1,1.9c-0.2,0.8-0.3,2.2-0.3,4.2v23.1H109.8z"/>
	<path class="st0" d="M137.7,38.2H121v-5.6h16.7V38.2z"/>
	<path class="st0" d="M179,6.3v10h-3.6c-0.6-2.1-1.3-3.7-2.2-5s-1.9-2.1-3.1-2.6c-1.2-0.5-2.6-0.8-4.2-0.8c-2.5,0-4.7,0.8-6.6,2.5
		s-3.4,4.1-4.6,7.4c-1.1,3.3-1.7,7.3-1.7,12s0.5,8.7,1.4,12s2.3,5.8,4,7.5s4,2.5,6.6,2.5c2,0,3.6-0.3,4.8-0.8
		c1.2-0.6,2.3-1.5,3.1-2.7c0.9-1.2,1.7-3,2.4-5.4h3.6v10.3c-2.3,0.6-4.6,1-6.9,1.3s-5,0.4-7.8,0.4c-6.1,0-10.7-2.1-13.8-6.2
		s-4.7-10.3-4.7-18.5c0-5.1,0.8-9.6,2.4-13.5c1.6-3.9,4-6.9,7.1-9s6.9-3.2,11.3-3.2c2.2,0,4.2,0.1,6,0.3
		C174.6,5.2,176.7,5.7,179,6.3z"/>
	<path class="st0" d="M206.1,54.9c-2.9,0-5.5-0.5-7.9-1.4s-4.4-2.4-6.1-4.4c-1.7-2-3-4.6-3.9-7.7c-0.9-3.1-1.4-6.9-1.4-11.2
		c0-5.4,0.8-9.9,2.4-13.8s4-6.8,7-8.8s6.6-3,10.6-3c4.3,0,7.9,0.9,10.8,2.8c2.9,1.9,5.1,4.7,6.6,8.3c1.5,3.7,2.2,8.1,2.2,13.4
		c0,5.6-0.8,10.4-2.5,14.2s-4,6.8-7.1,8.7C213.8,54,210.2,54.9,206.1,54.9z M194.3,29.2c0,7.4,1.1,13,3.2,16.8s5.3,5.8,9.4,5.8
		c2.6,0,4.8-0.8,6.7-2.5s3.2-4.1,4.1-7.3c0.9-3.2,1.4-7,1.4-11.3c0-5.2-0.5-9.6-1.6-13s-2.5-5.9-4.4-7.5c-1.8-1.6-4-2.3-6.4-2.3
		c-2.2,0-4,0.5-5.6,1.5s-2.8,2.4-3.9,4.3c-1,1.9-1.8,4.1-2.2,6.7S194.3,26,194.3,29.2z"/>
	<path class="st0" d="M264,34.9c0.9,1.4,1.6,2.7,2.2,3.8s1.2,2.3,1.8,3.6h0.5c-0.1-1.5-0.2-4.4-0.3-8.7s-0.1-8.3-0.1-11.8v-7.6
		c0-1.7,0-2.9-0.1-3.6c-0.1-0.8-0.3-1.4-0.5-1.8s-0.6-0.7-1-1s-1.2-0.5-2.3-0.8V5.2h13V7c-1.1,0.3-1.8,0.6-2.3,0.8
		c-0.4,0.2-0.8,0.6-1.1,0.9c-0.3,0.4-0.5,1-0.6,1.7c-0.1,0.8-0.2,2-0.2,3.8v40.3h-4.5l-20-33.6c-1.2-2.1-2.1-3.6-2.7-4.6
		c-0.5-1-1-1.9-1.5-2.8h-0.6c0.2,1.8,0.3,5.2,0.4,10c0.1,4.8,0.1,9.7,0.1,14.5v7.3c0,1.6,0.1,2.8,0.2,3.5s0.3,1.3,0.5,1.8
		c0.3,0.4,0.6,0.8,1.1,1.1s1.3,0.6,2.4,0.9v1.8h-13.1v-1.8c1.5-0.4,2.5-0.8,3-1.3s0.8-1.1,1-2s0.2-2.2,0.2-4V14.2
		c0-1.7-0.1-2.9-0.2-3.6c-0.1-0.8-0.3-1.3-0.6-1.8s-0.6-0.8-1.1-1c-0.5-0.3-1.2-0.5-2.3-0.8V5.2h11.3L264,34.9z"/>
	<path class="st0" d="M288.5,43.2c0.5,2.1,1.1,3.8,1.9,5s1.9,2.1,3.2,2.7c1.3,0.6,3,0.9,5,0.9c2.8,0,5-0.7,6.5-2.2s2.2-3.6,2.2-6.4
		c0-1.8-0.3-3.3-0.9-4.5s-1.6-2.4-3.1-3.5c-1.4-1.1-3.6-2.3-6.5-3.8c-2.8-1.4-5-2.8-6.7-4.1c-1.6-1.3-2.8-2.8-3.7-4.3
		c-0.8-1.6-1.2-3.3-1.2-5.1c0-2.7,0.6-5,1.9-7s3.1-3.5,5.5-4.6s5.2-1.6,8.4-1.6c1.8,0,3.6,0.1,5.3,0.3c1.7,0.2,3.9,0.6,6.5,1.3V16
		h-3.6c-0.6-2.1-1.2-3.8-2.1-4.9s-1.8-2-3-2.5c-1.1-0.5-2.6-0.7-4.4-0.7c-1.6,0-3,0.3-4.2,0.9c-1.2,0.6-2.2,1.4-2.9,2.6
		s-1.1,2.5-1.1,4.2s0.3,3.1,0.9,4.3s1.6,2.3,2.9,3.3s3.2,2.1,5.8,3.4c3.1,1.5,5.5,3,7.1,4.3s3,2.8,4,4.5s1.4,3.7,1.4,5.9
		c0,2.5-0.4,4.6-1.2,6.4c-0.8,1.7-1.9,3.2-3.3,4.2c-1.4,1.1-3.1,1.9-5,2.4S300,55,297.7,55c-3.8,0-8.1-0.6-13-1.9v-9.9
		C284.7,43.2,288.5,43.2,288.5,43.2z"/>
	<path class="st0" d="M358,37.4c0,2.6-0.2,4.9-0.7,6.8c-0.5,1.8-1.1,3.4-2.1,4.8c-0.8,1.2-1.9,2.3-3.1,3.2s-2.8,1.6-4.5,2.1
		c-1.8,0.5-3.9,0.8-6.3,0.8c-2.9,0-5.4-0.3-7.5-1c-2.1-0.6-3.8-1.7-5.1-3.2c-1.4-1.5-2.3-3.2-2.9-5.2s-0.9-4.6-0.9-7.6V14.2
		c0-1.9-0.1-3.1-0.2-3.8c-0.1-0.7-0.3-1.2-0.5-1.6c-0.2-0.4-0.6-0.7-1-1s-1.2-0.6-2.4-0.9V5.2h15.1V7c-1.3,0.3-2.3,0.7-2.8,1.1
		c-0.5,0.4-0.9,1-1.1,1.9s-0.3,2.2-0.3,4.2v25.5c0,2.3,0.2,4.3,0.7,5.9c0.5,1.6,1.2,2.8,2.1,3.7s1.9,1.5,3.2,1.9s2.7,0.6,4.6,0.6
		c1.7,0,3.2-0.3,4.4-0.9c1.3-0.6,2.3-1.5,3.2-2.7c0.9-1.2,1.4-2.7,1.7-4.4c0.3-1.8,0.5-4.1,0.5-7.1V14.2c0-2.1-0.1-3.5-0.3-4.3
		c-0.2-0.8-0.5-1.4-1-1.8c-0.5-0.4-1.4-0.8-2.9-1.2V5.2h14.4V7c-1.4,0.4-2.3,0.8-2.9,1.2c-0.5,0.4-0.9,1.1-1.1,1.9
		c-0.2,0.8-0.3,2.2-0.3,4.2L358,37.4L358,37.4z"/>
	<path class="st0" d="M380.5,51.1h9.4c1,0,1.9-0.1,2.6-0.2c0.7-0.1,1.3-0.3,1.8-0.6s0.9-0.6,1.3-1s0.8-1,1.1-1.7
		c0.4-0.7,0.7-1.6,1-2.7c0.3-1.1,0.7-2.7,1.2-4.9h3.6l-0.7,14.5h-32.4v-1.8c1.5-0.4,2.5-0.8,3-1.3s0.8-1.1,1-2s0.2-2.2,0.2-4V14.2
		c0-1.7-0.1-2.9-0.2-3.6c-0.1-0.8-0.3-1.3-0.6-1.8s-0.6-0.8-1.1-1c-0.5-0.3-1.2-0.5-2.3-0.8V5.2h15.2V7c-1.1,0.3-1.8,0.5-2.2,0.8
		c-0.4,0.2-0.8,0.5-1.1,0.9c-0.3,0.4-0.5,1-0.6,1.8s-0.2,2.1-0.2,3.8L380.5,51.1L380.5,51.1z"/>
	<path class="st0" d="M399.6,5.2h38.9v12.5H435c-0.5-2.1-1.1-3.7-1.6-4.9s-1.1-2.1-1.6-2.7s-1.2-1.1-1.9-1.3c-0.7-0.3-1.7-0.4-3-0.4
		h-4.6v36.9c0,1.4,0.1,2.5,0.2,3.4c0.2,0.8,0.4,1.5,0.7,2c0.3,0.5,0.8,0.9,1.3,1.2c0.6,0.3,1.4,0.5,2.6,0.8v1.8h-16.4v-1.8
		c0.7-0.2,1.4-0.3,1.9-0.5c0.6-0.2,1-0.4,1.3-0.7s0.6-0.6,0.9-1.1c0.2-0.4,0.4-1,0.5-1.8c0.1-0.7,0.2-1.8,0.2-3.3V8.4H411
		c-1.1,0-2.1,0.1-2.8,0.3c-0.7,0.2-1.4,0.7-2,1.3c-0.6,0.7-1.2,1.7-1.7,2.9c-0.5,1.3-1,2.8-1.5,4.8h-3.6V5.2H399.6z"/>
	<path class="st0" d="M456.3,45.4c0,1.6,0.1,2.8,0.2,3.5s0.3,1.3,0.5,1.8c0.2,0.4,0.6,0.8,1.1,1.1s1.3,0.6,2.4,0.9v1.8h-15.2v-1.8
		c1.5-0.4,2.5-0.8,3-1.3s0.8-1.1,1-2s0.2-2.2,0.2-4V14.2c0-1.7-0.1-2.9-0.2-3.6c-0.1-0.8-0.3-1.3-0.6-1.8s-0.6-0.8-1.1-1
		c-0.5-0.3-1.2-0.5-2.3-0.8V5.2h15.2V7c-1.1,0.3-1.8,0.5-2.3,0.8s-0.8,0.6-1.1,1s-0.5,1-0.6,1.8s-0.2,2-0.2,3.7V45.4z"/>
	<path class="st0" d="M498.1,34.9c0.9,1.4,1.6,2.7,2.2,3.8s1.2,2.3,1.8,3.6h0.5c-0.1-1.5-0.2-4.4-0.3-8.7s-0.1-8.3-0.1-11.8v-7.6
		c0-1.7,0-2.9-0.1-3.6c-0.1-0.8-0.3-1.4-0.5-1.8c-0.2-0.4-0.6-0.7-1-1s-1.2-0.5-2.3-0.8V5.2h13V7c-1.1,0.3-1.8,0.6-2.3,0.8
		c-0.4,0.2-0.8,0.6-1.1,0.9c-0.3,0.4-0.5,1-0.6,1.7c-0.1,0.8-0.2,2-0.2,3.8v40.3h-4.5l-20-33.6c-1.2-2.1-2.1-3.6-2.7-4.6
		c-0.5-1-1-1.9-1.5-2.8h-0.6c0.2,1.8,0.3,5.2,0.4,10S478,33.2,478,38v7.3c0,1.6,0.1,2.8,0.2,3.5s0.3,1.3,0.5,1.8
		c0.3,0.4,0.6,0.8,1.1,1.1s1.3,0.6,2.4,0.9v1.8H469v-1.8c1.5-0.4,2.5-0.8,3-1.3s0.8-1.1,1-2s0.2-2.2,0.2-4V14.2
		c0-1.7-0.1-2.9-0.2-3.6c-0.1-0.8-0.3-1.3-0.6-1.8s-0.6-0.8-1.1-1c-0.5-0.3-1.2-0.5-2.3-0.8V5.2h11.3L498.1,34.9z"/>
	<path class="st0" d="M553.8,54.2L551,55l-2.6-2.8c-1.6,1-3.2,1.7-4.9,2.1c-1.7,0.5-3.7,0.7-5.9,0.7c-6.1,0-10.6-2.1-13.7-6.2
		c-3.1-4.2-4.6-10.3-4.6-18.6c0-5.1,0.8-9.6,2.5-13.5s4.1-6.8,7.2-8.9s6.8-3.1,11.1-3.1c2.2,0,4.4,0.1,6.4,0.4s4.4,0.7,6.9,1.3v9.9
		h-3.6c-0.6-2.2-1.4-3.8-2.3-5.1c-0.9-1.2-2-2.1-3.2-2.6s-2.8-0.8-4.7-0.8c-2.6,0-4.9,0.8-6.9,2.5s-3.5,4.2-4.6,7.4
		c-1.1,3.3-1.6,7.2-1.6,11.9s0.5,8.7,1.4,12.1c0.9,3.3,2.3,5.8,4.1,7.5s4.1,2.5,6.7,2.5c2.8,0,4.9-0.6,6.3-1.9
		c1.4-1.2,2.1-3.1,2.1-5.7v-2.2c0-2.2-0.1-3.7-0.3-4.7s-0.6-1.7-1.2-2.2c-0.6-0.5-1.5-1-2.8-1.3v-1.8h14.5v1.8
		c-0.9,0.3-1.5,0.6-1.9,1s-0.8,0.8-1,1.4c-0.2,0.6-0.4,1.2-0.5,2s-0.1,1.9-0.1,3.4L553.8,54.2L553.8,54.2z"/>
</g>
<g>
	<path class="st1" d="M29.3,93.1c0,0.2-0.1,0.3-0.2,0.4s-0.2,0.2-0.4,0.2c-0.2,0.1-0.4,0.1-0.6,0.1s-0.5,0-0.9,0s-0.7,0-0.9,0
		c-0.3,0-0.5-0.1-0.6-0.1c-0.2-0.1-0.3-0.1-0.4-0.2s-0.1-0.2-0.2-0.4l-4.9-17.6l0,0l-4.5,17.6c0,0.2-0.1,0.3-0.2,0.4
		c-0.1,0.1-0.2,0.2-0.4,0.2c-0.2,0.1-0.4,0.1-0.6,0.1c-0.2,0-0.6,0-0.9,0c-0.4,0-0.7,0-1,0s-0.5-0.1-0.6-0.1
		c-0.2-0.1-0.3-0.1-0.4-0.2c-0.1-0.1-0.2-0.2-0.2-0.4L5.2,71.6C5.1,71.4,5.1,71.1,5,71c0-0.2,0-0.3,0.1-0.4s0.3-0.1,0.5-0.2
		c0.2,0,0.5,0,0.9,0s0.7,0,0.9,0c0.2,0,0.4,0.1,0.5,0.1s0.2,0.1,0.2,0.2s0.1,0.2,0.1,0.3l5.2,19.5l0,0l5-19.5c0-0.1,0.1-0.2,0.1-0.3
		c0.1-0.1,0.1-0.2,0.3-0.2c0.1,0,0.3-0.1,0.5-0.1s0.5,0,0.9,0c0.3,0,0.6,0,0.8,0c0.2,0,0.4,0.1,0.5,0.1s0.2,0.1,0.3,0.2
		c0.1,0.1,0.1,0.2,0.1,0.3l5.3,19.5l0,0L32.3,71c0-0.1,0.1-0.2,0.1-0.3c0-0.1,0.1-0.2,0.2-0.2c0.1,0,0.3-0.1,0.5-0.1s0.5,0,0.8,0
		c0.4,0,0.6,0,0.9,0c0.2,0,0.4,0.1,0.5,0.2s0.1,0.2,0.1,0.4c0,0.2,0,0.4-0.1,0.6L29.3,93.1z"/>
	<path class="st1" d="M42.8,71.7c0,0.7-0.1,1.2-0.4,1.4c-0.3,0.3-0.7,0.4-1.5,0.4c-0.7,0-1.2-0.1-1.4-0.4c-0.3-0.2-0.4-0.7-0.4-1.4
		c0-0.7,0.1-1.2,0.4-1.4c0.3-0.3,0.7-0.4,1.5-0.4c0.7,0,1.2,0.1,1.4,0.4C42.7,70.6,42.8,71,42.8,71.7z M42.5,93.4
		c0,0.1,0,0.2-0.1,0.2c0,0.1-0.1,0.1-0.2,0.2s-0.3,0.1-0.4,0.1c-0.2,0-0.4,0-0.7,0s-0.5,0-0.7,0s-0.3-0.1-0.5-0.1
		c-0.1,0-0.2-0.1-0.2-0.2s-0.1-0.1-0.1-0.2V77.2c0-0.1,0-0.2,0.1-0.2s0.1-0.1,0.2-0.2c0.1,0,0.3-0.1,0.5-0.1s0.4,0,0.7,0
		s0.5,0,0.7,0s0.3,0.1,0.4,0.1s0.2,0.1,0.2,0.2s0.1,0.2,0.1,0.2V93.4z"/>
	<path class="st1" d="M57.4,78.2c0,0.3,0,0.5,0,0.7s0,0.3-0.1,0.4c0,0.1-0.1,0.2-0.1,0.2c-0.1,0.1-0.1,0.1-0.2,0.1
		c-0.1,0-0.2,0-0.4-0.1c-0.1-0.1-0.3-0.1-0.5-0.2s-0.4-0.1-0.6-0.2c-0.2,0-0.4-0.1-0.7-0.1s-0.6,0.1-0.9,0.2
		c-0.3,0.1-0.6,0.3-0.9,0.6c-0.3,0.3-0.7,0.6-1,1.1s-0.7,1-1.2,1.7v10.7c0,0.1,0,0.2-0.1,0.2c0,0.1-0.1,0.1-0.2,0.2
		s-0.3,0.1-0.4,0.1c-0.2,0-0.4,0-0.7,0s-0.5,0-0.7,0s-0.3-0.1-0.5-0.1c-0.1,0-0.2-0.1-0.2-0.2s-0.1-0.1-0.1-0.2V77.2
		c0-0.1,0-0.2,0.1-0.2c0-0.1,0.1-0.1,0.2-0.2c0.1-0.1,0.2-0.1,0.4-0.1s0.4,0,0.7,0s0.5,0,0.7,0s0.3,0.1,0.4,0.1
		c0.1,0.1,0.2,0.1,0.2,0.2s0.1,0.1,0.1,0.2v2.4c0.4-0.6,0.9-1.2,1.3-1.6c0.4-0.4,0.8-0.7,1.1-1c0.3-0.2,0.7-0.4,1-0.5s0.7-0.1,1-0.1
		c0.2,0,0.3,0,0.5,0s0.4,0.1,0.6,0.1c0.2,0.1,0.4,0.1,0.6,0.2s0.3,0.1,0.4,0.2c0.1,0.1,0.1,0.1,0.1,0.2s0,0.1,0.1,0.2
		c0,0.1,0,0.2,0,0.4C57.4,77.7,57.4,78,57.4,78.2z"/>
	<path class="st1" d="M84,85.1c0,1.4-0.2,2.7-0.5,3.8c-0.3,1.1-0.8,2.1-1.4,2.9s-1.3,1.4-2.2,1.8s-1.9,0.6-3,0.6
		c-0.5,0-1-0.1-1.4-0.2s-0.9-0.3-1.3-0.5s-0.8-0.5-1.3-0.9s-0.9-0.8-1.3-1.3v2c0,0.1,0,0.2-0.1,0.2s-0.1,0.1-0.2,0.2
		c-0.1,0-0.2,0.1-0.4,0.1c-0.2,0-0.4,0-0.6,0s-0.4,0-0.6,0s-0.3-0.1-0.4-0.1s-0.2-0.1-0.2-0.2S69,93.3,69,93.3v-24
		c0-0.1,0-0.2,0.1-0.3s0.1-0.1,0.2-0.2c0.1,0,0.3-0.1,0.5-0.1s0.4,0,0.7,0c0.3,0,0.5,0,0.7,0s0.3,0.1,0.4,0.1s0.2,0.1,0.2,0.2
		s0.1,0.2,0.1,0.3V79c0.5-0.5,0.9-0.9,1.4-1.2c0.4-0.3,0.9-0.6,1.3-0.8c0.4-0.2,0.9-0.4,1.3-0.5s0.9-0.1,1.4-0.1
		c1.2,0,2.2,0.2,3,0.7s1.5,1.1,2,1.9s0.9,1.7,1.1,2.8C83.9,82.8,84,83.9,84,85.1z M80.9,85.4c0-0.8-0.1-1.6-0.2-2.4
		s-0.3-1.5-0.7-2.1c-0.3-0.6-0.7-1.1-1.2-1.5s-1.2-0.5-1.9-0.5c-0.4,0-0.8,0.1-1.1,0.2c-0.4,0.1-0.8,0.3-1.1,0.5
		c-0.4,0.2-0.8,0.6-1.2,1c-0.4,0.4-0.9,0.9-1.3,1.5v6.5c0.8,1,1.6,1.8,2.4,2.3c0.7,0.5,1.5,0.8,2.3,0.8c0.7,0,1.4-0.2,1.9-0.5
		s1-0.8,1.3-1.4s0.6-1.3,0.7-2C80.9,86.9,80.9,86.2,80.9,85.4z"/>
	<path class="st1" d="M102.3,84.6c0,0.5-0.1,0.8-0.4,1c-0.2,0.2-0.5,0.3-0.8,0.3H90.5c0,0.9,0.1,1.7,0.3,2.4
		c0.2,0.7,0.5,1.3,0.9,1.9c0.4,0.5,1,0.9,1.6,1.2c0.7,0.3,1.5,0.4,2.5,0.4c0.8,0,1.5-0.1,2.1-0.2s1.1-0.3,1.6-0.4
		c0.4-0.2,0.8-0.3,1.1-0.4c0.3-0.1,0.5-0.2,0.6-0.2s0.2,0,0.2,0.1c0.1,0,0.1,0.1,0.2,0.2c0,0.1,0.1,0.2,0.1,0.3c0,0.2,0,0.3,0,0.5
		s0,0.3,0,0.4s0,0.2,0,0.3c0,0.1,0,0.2-0.1,0.2s-0.1,0.1-0.2,0.2s-0.3,0.2-0.6,0.3c-0.3,0.1-0.7,0.3-1.3,0.4
		c-0.5,0.1-1.1,0.3-1.8,0.4c-0.7,0.1-1.4,0.2-2.2,0.2c-1.3,0-2.5-0.2-3.5-0.6s-1.8-0.9-2.5-1.7c-0.7-0.7-1.2-1.6-1.5-2.8
		c-0.3-1.1-0.5-2.4-0.5-3.9c0-1.4,0.2-2.6,0.5-3.8c0.4-1.1,0.9-2.1,1.6-2.8C90.2,78,91,77.4,92,77s2-0.6,3.2-0.6
		c1.3,0,2.4,0.2,3.2,0.6c0.9,0.4,1.6,1,2.2,1.6c0.6,0.7,1,1.5,1.3,2.4s0.4,1.9,0.4,3C102.3,84,102.3,84.6,102.3,84.6z M99.3,83.7
		c0-1.6-0.3-2.8-1-3.7c-0.7-0.9-1.8-1.3-3.2-1.3c-0.7,0-1.4,0.1-1.9,0.4c-0.6,0.3-1,0.6-1.4,1.1s-0.7,1-0.9,1.6
		c-0.2,0.6-0.3,1.2-0.3,1.9H99.3z"/>
	<path class="st1" d="M120.4,77.9c0,0.4-0.1,0.7-0.2,0.9c-0.1,0.2-0.3,0.3-0.4,0.3h-2.3c0.4,0.4,0.7,0.9,0.9,1.4
		c0.2,0.5,0.3,1.1,0.3,1.6c0,0.9-0.1,1.8-0.4,2.5s-0.7,1.3-1.3,1.8c-0.6,0.5-1.2,0.9-2,1.1c-0.8,0.3-1.6,0.4-2.6,0.4
		c-0.7,0-1.3-0.1-1.9-0.3c-0.6-0.2-1.1-0.4-1.4-0.7c-0.2,0.2-0.4,0.5-0.5,0.7c-0.1,0.3-0.2,0.6-0.2,1s0.2,0.8,0.6,1s0.9,0.4,1.6,0.5
		l4.2,0.2c0.8,0,1.5,0.1,2.2,0.3c0.7,0.2,1.3,0.5,1.7,0.8c0.5,0.4,0.9,0.8,1.2,1.4c0.3,0.5,0.4,1.2,0.4,1.9c0,0.7-0.2,1.5-0.5,2.1
		c-0.3,0.7-0.8,1.3-1.4,1.8s-1.5,0.9-2.5,1.2c-1,0.3-2.2,0.4-3.5,0.4s-2.4-0.1-3.3-0.3c-0.9-0.2-1.7-0.5-2.3-0.9
		c-0.6-0.4-1-0.8-1.3-1.4c-0.3-0.5-0.4-1.1-0.4-1.7c0-0.4,0-0.8,0.1-1.2c0.1-0.4,0.2-0.7,0.4-1.1c0.2-0.3,0.4-0.7,0.7-1
		c0.3-0.3,0.6-0.6,1-0.9c-0.6-0.3-1-0.7-1.3-1.1c-0.3-0.5-0.4-0.9-0.4-1.5c0-0.7,0.1-1.4,0.4-2s0.7-1.1,1.1-1.5
		c-0.4-0.4-0.7-0.9-0.9-1.5c-0.2-0.6-0.3-1.2-0.3-2c0-0.9,0.2-1.8,0.5-2.5s0.7-1.3,1.3-1.9c0.6-0.5,1.2-0.9,2-1.2
		c0.8-0.3,1.6-0.4,2.5-0.4c0.5,0,0.9,0,1.4,0.1c0.4,0.1,0.8,0.1,1.2,0.2h4.9c0.2,0,0.4,0.1,0.5,0.3
		C120.3,77.2,120.4,77.5,120.4,77.9z M117.2,95c0-0.7-0.3-1.2-0.9-1.6s-1.3-0.6-2.3-0.6l-4.2-0.1c-0.4,0.3-0.7,0.6-0.9,0.9
		c-0.2,0.3-0.4,0.5-0.6,0.8c-0.1,0.2-0.2,0.5-0.3,0.7c-0.1,0.2-0.1,0.5-0.1,0.7c0,0.8,0.4,1.4,1.2,1.8c0.8,0.4,1.9,0.6,3.3,0.6
		c0.9,0,1.7-0.1,2.3-0.3c0.6-0.2,1.1-0.4,1.5-0.7c0.4-0.3,0.6-0.6,0.8-1C117.1,95.8,117.2,95.4,117.2,95z M115.7,82.2
		c0-1.1-0.3-2-0.9-2.6s-1.5-0.9-2.6-0.9c-0.6,0-1.1,0.1-1.5,0.3c-0.4,0.2-0.8,0.5-1.1,0.8c-0.3,0.3-0.5,0.7-0.6,1.2
		c-0.1,0.4-0.2,0.9-0.2,1.4c0,1.1,0.3,1.9,0.9,2.5s1.5,0.9,2.5,0.9c0.6,0,1.1-0.1,1.5-0.3c0.4-0.2,0.8-0.4,1.1-0.8
		c0.3-0.3,0.5-0.7,0.6-1.1C115.6,83.1,115.7,82.7,115.7,82.2z"/>
	<path class="st1" d="M127.1,93.4c0,0.1,0,0.2-0.1,0.2c0,0.1-0.1,0.1-0.2,0.2s-0.3,0.1-0.4,0.1s-0.4,0-0.7,0c-0.3,0-0.5,0-0.7,0
		s-0.3-0.1-0.5-0.1c-0.1,0-0.2-0.1-0.2-0.2s-0.1-0.1-0.1-0.2v-24c0-0.1,0-0.2,0.1-0.3c0-0.1,0.1-0.1,0.2-0.2c0.1,0,0.3-0.1,0.5-0.1
		s0.4,0,0.7,0c0.3,0,0.5,0,0.7,0s0.3,0.1,0.4,0.1s0.2,0.1,0.2,0.2s0.1,0.2,0.1,0.3V93.4z"/>
	<path class="st1" d="M146.5,84.6c0,0.5-0.1,0.8-0.4,1c-0.2,0.2-0.5,0.3-0.8,0.3h-10.7c0,0.9,0.1,1.7,0.3,2.4
		c0.2,0.7,0.5,1.3,0.9,1.9c0.4,0.5,1,0.9,1.6,1.2c0.7,0.3,1.5,0.4,2.5,0.4c0.8,0,1.5-0.1,2.1-0.2s1.1-0.3,1.6-0.4
		c0.4-0.2,0.8-0.3,1.1-0.4s0.5-0.2,0.6-0.2s0.2,0,0.2,0.1c0.1,0,0.1,0.1,0.2,0.2c0,0.1,0.1,0.2,0.1,0.3c0,0.2,0,0.3,0,0.5
		s0,0.3,0,0.4s0,0.2,0,0.3c0,0.1,0,0.2-0.1,0.2s-0.1,0.1-0.2,0.2c-0.1,0.1-0.3,0.2-0.6,0.3c-0.3,0.1-0.7,0.3-1.3,0.4
		c-0.5,0.1-1.1,0.3-1.8,0.4s-1.4,0.2-2.2,0.2c-1.3,0-2.5-0.2-3.5-0.6s-1.8-0.9-2.5-1.7c-0.7-0.7-1.2-1.6-1.5-2.8
		c-0.3-1.1-0.5-2.4-0.5-3.9c0-1.4,0.2-2.6,0.5-3.8c0.4-1.1,0.9-2.1,1.6-2.8c0.7-0.8,1.5-1.4,2.5-1.8s2-0.6,3.2-0.6
		c1.3,0,2.4,0.2,3.2,0.6c0.9,0.4,1.6,1,2.2,1.6c0.6,0.7,1,1.5,1.3,2.4s0.4,1.9,0.4,3L146.5,84.6L146.5,84.6z M143.5,83.7
		c0-1.6-0.3-2.8-1-3.7c-0.7-0.9-1.8-1.3-3.2-1.3c-0.7,0-1.4,0.1-1.9,0.4s-1,0.6-1.4,1.1s-0.7,1-0.9,1.6s-0.3,1.2-0.3,1.9H143.5z"/>
	<path class="st1" d="M154.3,71.7c0,0.7-0.1,1.2-0.4,1.4c-0.3,0.3-0.7,0.4-1.5,0.4c-0.7,0-1.2-0.1-1.4-0.4c-0.3-0.2-0.4-0.7-0.4-1.4
		c0-0.7,0.1-1.2,0.4-1.4c0.3-0.3,0.7-0.4,1.5-0.4c0.7,0,1.2,0.1,1.4,0.4S154.3,71,154.3,71.7z M153.9,93.4c0,0.1,0,0.2-0.1,0.2
		c0,0.1-0.1,0.1-0.2,0.2c-0.1,0-0.3,0.1-0.4,0.1s-0.4,0-0.7,0s-0.5,0-0.7,0s-0.3-0.1-0.5-0.1c-0.1,0-0.2-0.1-0.2-0.2
		s-0.1-0.1-0.1-0.2V77.2c0-0.1,0-0.2,0.1-0.2s0.1-0.1,0.2-0.2c0.1,0,0.3-0.1,0.5-0.1s0.4,0,0.7,0s0.5,0,0.7,0s0.3,0.1,0.4,0.1
		c0.1,0,0.2,0.1,0.2,0.2s0.1,0.2,0.1,0.2V93.4z"/>
	<path class="st1" d="M167.8,92.2c0,0.4,0,0.6-0.1,0.8c0,0.2-0.1,0.4-0.2,0.4c-0.1,0.1-0.2,0.2-0.4,0.3c-0.2,0.1-0.4,0.2-0.7,0.2
		c-0.2,0.1-0.5,0.1-0.8,0.1s-0.6,0.1-0.8,0.1c-0.8,0-1.6-0.1-2.2-0.3c-0.6-0.2-1.1-0.6-1.5-1s-0.7-1-0.8-1.7
		c-0.2-0.7-0.3-1.5-0.3-2.4v-9.5h-2.3c-0.2,0-0.3-0.1-0.4-0.3c-0.1-0.2-0.2-0.5-0.2-0.9c0-0.2,0-0.4,0-0.6s0.1-0.3,0.1-0.4
		s0.1-0.2,0.2-0.2c0.1,0,0.2-0.1,0.3-0.1h2.2v-3.8c0-0.1,0-0.2,0.1-0.2c0-0.1,0.1-0.1,0.2-0.2c0.1-0.1,0.3-0.1,0.5-0.1s0.4,0,0.7,0
		s0.5,0,0.7,0s0.3,0.1,0.4,0.1c0.1,0.1,0.2,0.1,0.2,0.2s0.1,0.2,0.1,0.2v3.8h4.2c0.1,0,0.2,0,0.3,0.1c0.1,0,0.1,0.1,0.2,0.2
		c0.1,0.1,0.1,0.2,0.1,0.4c0,0.2,0,0.3,0,0.6c0,0.4-0.1,0.7-0.2,0.9c-0.1,0.2-0.3,0.3-0.4,0.3h-4.2v9c0,1.1,0.2,2,0.5,2.5
		c0.3,0.6,0.9,0.9,1.8,0.9c0.3,0,0.5,0,0.7-0.1s0.4-0.1,0.6-0.2c0.2-0.1,0.3-0.1,0.4-0.2c0.1-0.1,0.2-0.1,0.3-0.1s0.1,0,0.2,0
		c0.1,0,0.1,0.1,0.1,0.2s0.1,0.2,0.1,0.3C167.8,91.8,167.8,92,167.8,92.2z"/>
	<path class="st1" d="M185.2,84.6c0,0.5-0.1,0.8-0.4,1c-0.2,0.2-0.5,0.3-0.8,0.3h-10.7c0,0.9,0.1,1.7,0.3,2.4
		c0.2,0.7,0.5,1.3,0.9,1.9c0.4,0.5,1,0.9,1.6,1.2c0.7,0.3,1.5,0.4,2.5,0.4c0.8,0,1.5-0.1,2.1-0.2s1.1-0.3,1.6-0.4
		c0.4-0.2,0.8-0.3,1.1-0.4s0.5-0.2,0.6-0.2s0.2,0,0.2,0.1c0.1,0,0.1,0.1,0.2,0.2c0,0.1,0.1,0.2,0.1,0.3c0,0.2,0,0.3,0,0.5
		s0,0.3,0,0.4s0,0.2,0,0.3c0,0.1,0,0.2-0.1,0.2s-0.1,0.1-0.2,0.2c-0.1,0.1-0.3,0.2-0.6,0.3c-0.3,0.1-0.7,0.3-1.3,0.4
		c-0.5,0.1-1.1,0.3-1.8,0.4s-1.4,0.2-2.2,0.2c-1.3,0-2.5-0.2-3.5-0.6s-1.8-0.9-2.5-1.7c-0.7-0.7-1.2-1.6-1.5-2.8
		c-0.3-1.1-0.5-2.4-0.5-3.9c0-1.4,0.2-2.6,0.5-3.8c0.4-1.1,0.9-2.1,1.6-2.8c0.7-0.8,1.5-1.4,2.5-1.8s2-0.6,3.2-0.6
		c1.3,0,2.4,0.2,3.2,0.6c0.9,0.4,1.6,1,2.2,1.6c0.6,0.7,1,1.5,1.3,2.4s0.4,1.9,0.4,3L185.2,84.6L185.2,84.6z M182.2,83.7
		c0-1.6-0.3-2.8-1-3.7c-0.7-0.9-1.8-1.3-3.2-1.3c-0.7,0-1.4,0.1-1.9,0.4s-1,0.6-1.4,1.1s-0.7,1-0.9,1.6s-0.3,1.2-0.3,1.9H182.2z"/>
	<path class="st1" d="M203.7,93.4c0,0.1,0,0.2-0.1,0.2c0,0.1-0.1,0.1-0.2,0.2c-0.1,0-0.3,0.1-0.4,0.1s-0.4,0-0.7,0s-0.5,0-0.7,0
		s-0.3-0.1-0.4-0.1s-0.2-0.1-0.2-0.2s-0.1-0.1-0.1-0.2v-9.5c0-0.9-0.1-1.7-0.2-2.2c-0.1-0.6-0.4-1-0.6-1.5c-0.3-0.4-0.6-0.7-1.1-0.9
		c-0.4-0.2-0.9-0.3-1.5-0.3c-0.7,0-1.5,0.3-2.2,0.8s-1.5,1.3-2.3,2.3v11.3c0,0.1,0,0.2-0.1,0.2c0,0.1-0.1,0.1-0.2,0.2
		s-0.3,0.1-0.4,0.1c-0.2,0-0.4,0-0.7,0s-0.5,0-0.7,0s-0.3-0.1-0.5-0.1c-0.1,0-0.2-0.1-0.2-0.2s-0.1-0.1-0.1-0.2V77.2
		c0-0.1,0-0.2,0.1-0.2c0-0.1,0.1-0.1,0.2-0.2c0.1-0.1,0.2-0.1,0.4-0.1s0.4,0,0.7,0s0.5,0,0.7,0s0.3,0.1,0.4,0.1
		c0.1,0.1,0.2,0.1,0.2,0.2s0.1,0.1,0.1,0.2v2.1c0.9-1,1.8-1.8,2.7-2.2c0.9-0.5,1.8-0.7,2.7-0.7c1.1,0,2,0.2,2.7,0.5
		c0.7,0.4,1.3,0.9,1.8,1.5s0.8,1.3,1,2.2c0.2,0.8,0.3,1.8,0.3,3v9.8H203.7z"/>
	<path class="st1" d="M231.3,93.4c0,0.1,0,0.2-0.1,0.2s-0.1,0.1-0.2,0.2c-0.1,0-0.2,0.1-0.4,0.1s-0.4,0-0.6,0c-0.3,0-0.5,0-0.6,0
		c-0.2,0-0.3-0.1-0.4-0.1c-0.1,0-0.2-0.1-0.2-0.2s-0.1-0.2-0.1-0.2v-2.1c-0.9,0.9-1.7,1.6-2.7,2.2c-0.9,0.5-1.9,0.8-3,0.8
		c-1.2,0-2.2-0.2-3-0.7s-1.5-1.1-2-1.9s-0.9-1.7-1.1-2.8c-0.2-1.1-0.4-2.2-0.4-3.4c0-1.4,0.1-2.6,0.4-3.8c0.3-1.1,0.7-2.1,1.3-2.9
		s1.3-1.4,2.2-1.8s1.9-0.6,3-0.6c0.9,0,1.8,0.2,2.6,0.6s1.6,1,2.3,1.8v-9.4c0-0.1,0-0.2,0.1-0.2c0-0.1,0.1-0.1,0.2-0.2
		c0.1,0,0.3-0.1,0.5-0.1s0.4,0,0.7,0s0.5,0,0.7,0s0.3,0.1,0.4,0.1c0.1,0,0.2,0.1,0.2,0.2c0.1,0.1,0.1,0.2,0.1,0.2v24H231.3z
		 M228.3,82c-0.8-1-1.6-1.8-2.3-2.3s-1.5-0.8-2.3-0.8s-1.4,0.2-1.9,0.5c-0.5,0.4-1,0.8-1.3,1.4s-0.6,1.3-0.7,2
		c-0.2,0.7-0.2,1.5-0.2,2.3s0.1,1.6,0.2,2.4c0.1,0.8,0.3,1.5,0.7,2.1c0.3,0.6,0.7,1.1,1.2,1.5s1.2,0.5,1.9,0.5
		c0.4,0,0.8-0.1,1.1-0.2c0.4-0.1,0.7-0.3,1.1-0.5c0.4-0.3,0.8-0.6,1.2-1s0.9-0.9,1.3-1.5V82z"/>
	<path class="st1" d="M240.1,71.7c0,0.7-0.1,1.2-0.4,1.4s-0.7,0.4-1.5,0.4c-0.7,0-1.2-0.1-1.4-0.4c-0.3-0.2-0.4-0.7-0.4-1.4
		c0-0.7,0.1-1.2,0.4-1.4c0.3-0.3,0.7-0.4,1.5-0.4c0.7,0,1.2,0.1,1.4,0.4C240,70.6,240.1,71,240.1,71.7z M239.7,93.4
		c0,0.1,0,0.2-0.1,0.2c0,0.1-0.1,0.1-0.2,0.2c-0.1,0-0.3,0.1-0.4,0.1s-0.4,0-0.7,0s-0.5,0-0.7,0s-0.3-0.1-0.5-0.1
		c-0.1,0-0.2-0.1-0.2-0.2s-0.1-0.1-0.1-0.2V77.2c0-0.1,0-0.2,0.1-0.2s0.1-0.1,0.2-0.2c0.1,0,0.3-0.1,0.5-0.1s0.4,0,0.7,0
		s0.5,0,0.7,0s0.3,0.1,0.4,0.1c0.1,0,0.2,0.1,0.2,0.2s0.1,0.2,0.1,0.2V93.4z"/>
	<path class="st1" d="M258.8,77.9c0,0.4-0.1,0.7-0.2,0.9c-0.1,0.2-0.3,0.3-0.4,0.3h-2.3c0.4,0.4,0.7,0.9,0.9,1.4s0.3,1.1,0.3,1.6
		c0,0.9-0.1,1.8-0.4,2.5s-0.7,1.3-1.3,1.8s-1.2,0.9-2,1.1c-0.8,0.3-1.6,0.4-2.6,0.4c-0.7,0-1.3-0.1-1.9-0.3
		c-0.6-0.2-1.1-0.4-1.4-0.7c-0.2,0.2-0.4,0.5-0.5,0.7c-0.1,0.3-0.2,0.6-0.2,1s0.2,0.8,0.6,1c0.4,0.3,0.9,0.4,1.6,0.5l4.2,0.2
		c0.8,0,1.5,0.1,2.2,0.3c0.7,0.2,1.3,0.5,1.7,0.8c0.5,0.4,0.9,0.8,1.2,1.4c0.3,0.5,0.4,1.2,0.4,1.9c0,0.7-0.2,1.5-0.5,2.1
		c-0.3,0.7-0.8,1.3-1.4,1.8s-1.5,0.9-2.5,1.2c-1,0.3-2.2,0.4-3.5,0.4s-2.4-0.1-3.3-0.3c-0.9-0.2-1.7-0.5-2.3-0.9s-1-0.8-1.3-1.4
		c-0.3-0.5-0.4-1.1-0.4-1.7c0-0.4,0-0.8,0.1-1.2c0.1-0.4,0.2-0.7,0.4-1.1c0.2-0.3,0.4-0.7,0.7-1s0.6-0.6,1-0.9
		c-0.6-0.3-1-0.7-1.3-1.1c-0.3-0.5-0.4-0.9-0.4-1.5c0-0.7,0.1-1.4,0.4-2c0.3-0.6,0.7-1.1,1.1-1.5c-0.4-0.4-0.7-0.9-0.9-1.5
		s-0.3-1.2-0.3-2c0-0.9,0.2-1.8,0.5-2.5s0.7-1.3,1.3-1.9c0.6-0.5,1.2-0.9,2-1.2c0.8-0.3,1.6-0.4,2.5-0.4c0.5,0,0.9,0,1.4,0.1
		c0.4,0.1,0.8,0.1,1.2,0.2h4.9c0.2,0,0.4,0.1,0.5,0.3C258.7,77.2,258.8,77.5,258.8,77.9z M255.6,95c0-0.7-0.3-1.2-0.9-1.6
		c-0.6-0.4-1.3-0.6-2.3-0.6l-4.2-0.1c-0.4,0.3-0.7,0.6-0.9,0.9s-0.4,0.5-0.6,0.8c-0.1,0.2-0.2,0.5-0.3,0.7s-0.1,0.5-0.1,0.7
		c0,0.8,0.4,1.4,1.2,1.8s1.9,0.6,3.3,0.6c0.9,0,1.7-0.1,2.3-0.3c0.6-0.2,1.1-0.4,1.5-0.7c0.4-0.3,0.6-0.6,0.8-1
		C255.5,95.8,255.6,95.4,255.6,95z M254.1,82.2c0-1.1-0.3-2-0.9-2.6c-0.6-0.6-1.5-0.9-2.6-0.9c-0.6,0-1.1,0.1-1.5,0.3
		c-0.4,0.2-0.8,0.5-1.1,0.8s-0.5,0.7-0.6,1.2c-0.1,0.4-0.2,0.9-0.2,1.4c0,1.1,0.3,1.9,0.9,2.5c0.6,0.6,1.5,0.9,2.5,0.9
		c0.6,0,1.1-0.1,1.5-0.3c0.4-0.2,0.8-0.4,1.1-0.8c0.3-0.3,0.5-0.7,0.6-1.1C254.1,83.1,254.1,82.7,254.1,82.2z"/>
	<path class="st1" d="M265.9,71.7c0,0.7-0.1,1.2-0.4,1.4s-0.7,0.4-1.5,0.4c-0.7,0-1.2-0.1-1.4-0.4c-0.3-0.2-0.4-0.7-0.4-1.4
		c0-0.7,0.1-1.2,0.4-1.4c0.3-0.3,0.7-0.4,1.5-0.4c0.7,0,1.2,0.1,1.4,0.4C265.8,70.6,265.9,71,265.9,71.7z M265.5,93.4
		c0,0.1,0,0.2-0.1,0.2c0,0.1-0.1,0.1-0.2,0.2c-0.1,0-0.3,0.1-0.4,0.1s-0.4,0-0.7,0c-0.3,0-0.5,0-0.7,0s-0.3-0.1-0.5-0.1
		c-0.1,0-0.2-0.1-0.2-0.2s-0.1-0.1-0.1-0.2V77.2c0-0.1,0-0.2,0.1-0.2s0.1-0.1,0.2-0.2c0.1,0,0.3-0.1,0.5-0.1s0.4,0,0.7,0
		c0.3,0,0.5,0,0.7,0s0.3,0.1,0.4,0.1s0.2,0.1,0.2,0.2s0.1,0.2,0.1,0.2V93.4z"/>
	<path class="st1" d="M279.5,92.2c0,0.4,0,0.6-0.1,0.8c0,0.2-0.1,0.4-0.2,0.4c-0.1,0.1-0.2,0.2-0.4,0.3c-0.2,0.1-0.4,0.2-0.7,0.2
		c-0.2,0.1-0.5,0.1-0.8,0.1s-0.6,0.1-0.8,0.1c-0.8,0-1.6-0.1-2.2-0.3c-0.6-0.2-1.1-0.6-1.5-1s-0.7-1-0.8-1.7
		c-0.2-0.7-0.3-1.5-0.3-2.4v-9.5h-2.3c-0.2,0-0.3-0.1-0.4-0.3c-0.1-0.2-0.2-0.5-0.2-0.9c0-0.2,0-0.4,0-0.6s0.1-0.3,0.1-0.4
		s0.1-0.2,0.2-0.2s0.2-0.1,0.3-0.1h2.2v-3.8c0-0.1,0-0.2,0.1-0.2c0-0.1,0.1-0.1,0.2-0.2s0.3-0.1,0.5-0.1s0.4,0,0.7,0
		c0.3,0,0.5,0,0.7,0s0.3,0.1,0.4,0.1c0.1,0.1,0.2,0.1,0.2,0.2s0.1,0.2,0.1,0.2v3.8h4.2c0.1,0,0.2,0,0.3,0.1c0.1,0,0.1,0.1,0.2,0.2
		s0.1,0.2,0.1,0.4c0,0.2,0,0.3,0,0.6c0,0.4-0.1,0.7-0.2,0.9c-0.1,0.2-0.3,0.3-0.4,0.3h-4.2v9c0,1.1,0.2,2,0.5,2.5
		c0.3,0.6,0.9,0.9,1.8,0.9c0.3,0,0.5,0,0.7-0.1s0.4-0.1,0.6-0.2s0.3-0.1,0.4-0.2s0.2-0.1,0.3-0.1c0.1,0,0.1,0,0.2,0s0.1,0.1,0.1,0.2
		s0.1,0.2,0.1,0.3C279.4,91.8,279.5,92,279.5,92.2z"/>
	<path class="st1" d="M295.1,93.4c0,0.1,0,0.3-0.1,0.3s-0.2,0.1-0.4,0.2c-0.2,0-0.4,0.1-0.7,0.1c-0.3,0-0.6,0-0.7-0.1
		c-0.2,0-0.3-0.1-0.4-0.2s-0.1-0.2-0.1-0.3v-1.6c-0.7,0.8-1.5,1.3-2.4,1.8c-0.9,0.4-1.8,0.6-2.8,0.6c-0.9,0-1.6-0.1-2.3-0.3
		c-0.7-0.2-1.3-0.5-1.8-1c-0.5-0.4-0.9-0.9-1.1-1.6c-0.3-0.6-0.4-1.3-0.4-2.1c0-0.9,0.2-1.7,0.6-2.4c0.4-0.7,0.9-1.2,1.6-1.7
		c0.7-0.4,1.5-0.8,2.6-1c1-0.2,2.1-0.3,3.4-0.3h2.2v-1.3c0-0.6-0.1-1.2-0.2-1.7s-0.3-0.9-0.6-1.2c-0.3-0.3-0.7-0.6-1.1-0.7
		c-0.5-0.2-1-0.2-1.7-0.2s-1.4,0.1-2,0.3c-0.6,0.2-1.1,0.4-1.5,0.6s-0.8,0.4-1.1,0.6c-0.3,0.2-0.5,0.3-0.7,0.3c-0.1,0-0.2,0-0.3-0.1
		c-0.1,0-0.1-0.1-0.2-0.2s-0.1-0.2-0.1-0.4c0-0.1,0-0.3,0-0.5c0-0.3,0-0.5,0.1-0.7c0-0.2,0.1-0.3,0.3-0.5c0.2-0.2,0.4-0.3,0.8-0.5
		s0.9-0.4,1.4-0.6s1.1-0.3,1.7-0.4s1.2-0.2,1.9-0.2c1.2,0,2.2,0.1,3,0.4s1.5,0.7,2,1.2s0.9,1.1,1.1,1.9s0.3,1.6,0.3,2.6v10.9H295.1z
		 M292.2,86h-2.5c-0.8,0-1.5,0.1-2.1,0.2s-1.1,0.3-1.5,0.6c-0.4,0.3-0.7,0.6-0.9,1c-0.2,0.4-0.3,0.8-0.3,1.3c0,0.8,0.3,1.5,0.8,2
		s1.3,0.7,2.2,0.7c0.8,0,1.5-0.2,2.2-0.6s1.4-1,2.1-1.8L292.2,86L292.2,86z"/>
	<path class="st1" d="M303.6,93.4c0,0.1,0,0.2-0.1,0.2c0,0.1-0.1,0.1-0.2,0.2s-0.3,0.1-0.4,0.1s-0.4,0-0.7,0c-0.3,0-0.5,0-0.7,0
		s-0.3-0.1-0.5-0.1c-0.1,0-0.2-0.1-0.2-0.2s-0.1-0.1-0.1-0.2v-24c0-0.1,0-0.2,0.1-0.3s0.1-0.1,0.2-0.2c0.1,0,0.3-0.1,0.5-0.1
		s0.4,0,0.7,0c0.3,0,0.5,0,0.7,0s0.3,0.1,0.4,0.1s0.2,0.1,0.2,0.2s0.1,0.2,0.1,0.3V93.4z"/>
	<path class="st1" d="M322.9,84.6c0,0.5-0.1,0.8-0.4,1c-0.2,0.2-0.5,0.3-0.8,0.3H311c0,0.9,0.1,1.7,0.3,2.4c0.2,0.7,0.5,1.3,0.9,1.9
		c0.4,0.5,1,0.9,1.6,1.2c0.7,0.3,1.5,0.4,2.5,0.4c0.8,0,1.5-0.1,2.1-0.2s1.1-0.3,1.6-0.4s0.8-0.3,1.1-0.4c0.3-0.1,0.5-0.2,0.6-0.2
		s0.2,0,0.2,0.1c0.1,0,0.1,0.1,0.2,0.2c0,0.1,0.1,0.2,0.1,0.3c0,0.2,0,0.3,0,0.5s0,0.3,0,0.4s0,0.2,0,0.3c0,0.1,0,0.2-0.1,0.2
		s-0.1,0.1-0.2,0.2s-0.3,0.2-0.6,0.3c-0.3,0.1-0.7,0.3-1.3,0.4c-0.5,0.1-1.1,0.3-1.8,0.4c-0.7,0.1-1.4,0.2-2.2,0.2
		c-1.3,0-2.5-0.2-3.5-0.6s-1.8-0.9-2.5-1.7c-0.7-0.7-1.2-1.6-1.5-2.8c-0.3-1.1-0.5-2.4-0.5-3.9c0-1.4,0.2-2.6,0.5-3.8
		c0.4-1.1,0.9-2.1,1.6-2.8c0.7-0.8,1.5-1.4,2.5-1.8s2-0.6,3.2-0.6c1.3,0,2.4,0.2,3.2,0.6c0.9,0.4,1.6,1,2.2,1.6
		c0.6,0.7,1,1.5,1.3,2.4s0.4,1.9,0.4,3L322.9,84.6L322.9,84.6z M319.9,83.7c0-1.6-0.3-2.8-1-3.7c-0.7-0.9-1.8-1.3-3.2-1.3
		c-0.7,0-1.4,0.1-1.9,0.4s-1,0.6-1.4,1.1s-0.7,1-0.9,1.6c-0.2,0.6-0.3,1.2-0.3,1.9H319.9z"/>
	<path class="st1" d="M350.7,71.9c0,0.2,0,0.4,0,0.6s-0.1,0.3-0.1,0.4c-0.1,0.1-0.1,0.2-0.2,0.2s-0.2,0.1-0.3,0.1h-6.6v20.2
		c0,0.1,0,0.2-0.1,0.3c0,0.1-0.1,0.1-0.3,0.2c-0.1,0-0.3,0.1-0.5,0.1s-0.4,0-0.7,0c-0.3,0-0.5,0-0.7,0s-0.4-0.1-0.5-0.1
		s-0.2-0.1-0.3-0.2c0-0.1-0.1-0.2-0.1-0.3V73.2h-6.6c-0.1,0-0.2,0-0.3-0.1c-0.1,0-0.1-0.1-0.2-0.2c0-0.1-0.1-0.2-0.1-0.4
		c0-0.2,0-0.4,0-0.6s0-0.4,0-0.6s0.1-0.3,0.1-0.4s0.1-0.2,0.2-0.2s0.2-0.1,0.3-0.1H350c0.1,0,0.2,0,0.3,0.1c0.1,0,0.1,0.1,0.2,0.2
		s0.1,0.2,0.1,0.4C350.6,71.4,350.7,71.6,350.7,71.9z"/>
	<path class="st1" d="M360.9,78.2c0,0.3,0,0.5,0,0.7s0,0.3-0.1,0.4c0,0.1-0.1,0.2-0.1,0.2c-0.1,0.1-0.1,0.1-0.2,0.1s-0.2,0-0.4-0.1
		c-0.1-0.1-0.3-0.1-0.5-0.2s-0.4-0.1-0.6-0.2s-0.4-0.1-0.7-0.1c-0.3,0-0.6,0.1-0.9,0.2s-0.6,0.3-0.9,0.6c-0.3,0.3-0.7,0.6-1,1.1
		s-0.7,1-1.2,1.7v10.7c0,0.1,0,0.2-0.1,0.2c0,0.1-0.1,0.1-0.2,0.2c-0.1,0-0.3,0.1-0.4,0.1s-0.4,0-0.7,0c-0.3,0-0.5,0-0.7,0
		s-0.3-0.1-0.5-0.1c-0.1,0-0.2-0.1-0.2-0.2s-0.1-0.1-0.1-0.2V77.2c0-0.1,0-0.2,0.1-0.2c0-0.1,0.1-0.1,0.2-0.2s0.2-0.1,0.4-0.1
		c0.2,0,0.4,0,0.7,0c0.3,0,0.5,0,0.7,0s0.3,0.1,0.4,0.1c0.1,0.1,0.2,0.1,0.2,0.2s0.1,0.1,0.1,0.2v2.4c0.4-0.6,0.9-1.2,1.3-1.6
		s0.8-0.7,1.1-1c0.3-0.2,0.7-0.4,1-0.5s0.7-0.1,1-0.1c0.2,0,0.3,0,0.5,0s0.4,0.1,0.6,0.1c0.2,0.1,0.4,0.1,0.6,0.2s0.3,0.1,0.4,0.2
		s0.1,0.1,0.1,0.2s0,0.1,0.1,0.2c0,0.1,0,0.2,0,0.4C360.9,77.7,360.9,78,360.9,78.2z"/>
	<path class="st1" d="M375.7,93.4c0,0.1,0,0.3-0.1,0.3s-0.2,0.1-0.4,0.2c-0.2,0-0.4,0.1-0.7,0.1c-0.3,0-0.6,0-0.7-0.1
		c-0.2,0-0.3-0.1-0.4-0.2s-0.1-0.2-0.1-0.3v-1.6c-0.7,0.8-1.5,1.3-2.4,1.8c-0.9,0.4-1.8,0.6-2.8,0.6c-0.9,0-1.6-0.1-2.3-0.3
		c-0.7-0.2-1.3-0.5-1.8-1c-0.5-0.4-0.9-0.9-1.1-1.6c-0.3-0.6-0.4-1.3-0.4-2.1c0-0.9,0.2-1.7,0.6-2.4c0.4-0.7,0.9-1.2,1.6-1.7
		c0.7-0.4,1.5-0.8,2.6-1c1-0.2,2.1-0.3,3.4-0.3h2.2v-1.3c0-0.6-0.1-1.2-0.2-1.7s-0.3-0.9-0.6-1.2c-0.3-0.3-0.7-0.6-1.1-0.7
		c-0.5-0.2-1-0.2-1.7-0.2s-1.4,0.1-2,0.3c-0.6,0.2-1.1,0.4-1.5,0.6s-0.8,0.4-1.1,0.6c-0.3,0.2-0.5,0.3-0.7,0.3c-0.1,0-0.2,0-0.3-0.1
		c-0.1,0-0.1-0.1-0.2-0.2s-0.1-0.2-0.1-0.4c0-0.1,0-0.3,0-0.5c0-0.3,0-0.5,0.1-0.7c0-0.2,0.1-0.3,0.3-0.5c0.2-0.2,0.4-0.3,0.8-0.5
		s0.9-0.4,1.4-0.6s1.1-0.3,1.7-0.4s1.2-0.2,1.9-0.2c1.2,0,2.2,0.1,3,0.4s1.5,0.7,2,1.2s0.9,1.1,1.1,1.9s0.3,1.6,0.3,2.6v10.9H375.7z
		 M372.7,86h-2.5c-0.8,0-1.5,0.1-2.1,0.2s-1.1,0.3-1.5,0.6c-0.4,0.3-0.7,0.6-0.9,1c-0.2,0.4-0.3,0.8-0.3,1.3c0,0.8,0.3,1.5,0.8,2
		s1.3,0.7,2.2,0.7c0.8,0,1.5-0.2,2.2-0.6s1.4-1,2.1-1.8L372.7,86L372.7,86z"/>
	<path class="st1" d="M395.1,93.4c0,0.1,0,0.2-0.1,0.2c0,0.1-0.1,0.1-0.2,0.2c-0.1,0-0.3,0.1-0.5,0.1s-0.4,0-0.7,0
		c-0.3,0-0.5,0-0.7,0s-0.3-0.1-0.4-0.1s-0.2-0.1-0.2-0.2c-0.1-0.1-0.1-0.1-0.1-0.2v-9.5c0-0.9-0.1-1.7-0.2-2.2
		c-0.1-0.6-0.4-1-0.6-1.5c-0.3-0.4-0.6-0.7-1.1-0.9c-0.4-0.2-0.9-0.3-1.5-0.3c-0.7,0-1.5,0.3-2.2,0.8s-1.5,1.3-2.3,2.3v11.3
		c0,0.1,0,0.2-0.1,0.2c0,0.1-0.1,0.1-0.2,0.2s-0.3,0.1-0.4,0.1c-0.2,0-0.4,0-0.7,0c-0.3,0-0.5,0-0.7,0s-0.3-0.1-0.5-0.1
		c-0.1,0-0.2-0.1-0.2-0.2s-0.1-0.1-0.1-0.2V77.2c0-0.1,0-0.2,0.1-0.2c0-0.1,0.1-0.1,0.2-0.2s0.2-0.1,0.4-0.1c0.2,0,0.4,0,0.7,0
		c0.3,0,0.5,0,0.7,0s0.3,0.1,0.4,0.1c0.1,0.1,0.2,0.1,0.2,0.2s0.1,0.1,0.1,0.2v2.1c0.9-1,1.8-1.8,2.7-2.2c0.9-0.5,1.8-0.7,2.7-0.7
		c1.1,0,2,0.2,2.7,0.5c0.7,0.4,1.3,0.9,1.8,1.5s0.8,1.3,1,2.2c0.2,0.8,0.3,1.8,0.3,3v9.8H395.1z"/>
	<path class="st1" d="M410.7,89c0,0.8-0.2,1.6-0.5,2.2s-0.7,1.2-1.3,1.6s-1.2,0.8-2,1s-1.6,0.3-2.6,0.3c-0.6,0-1.1,0-1.6-0.1
		s-1-0.2-1.4-0.3c-0.4-0.1-0.8-0.3-1.1-0.4c-0.3-0.1-0.5-0.3-0.6-0.4s-0.2-0.3-0.3-0.5c-0.1-0.2-0.1-0.5-0.1-0.9c0-0.2,0-0.4,0-0.6
		s0.1-0.3,0.1-0.4s0.1-0.2,0.2-0.2s0.1-0.1,0.2-0.1s0.3,0.1,0.6,0.2c0.3,0.2,0.6,0.3,1,0.5s0.8,0.4,1.3,0.5c0.5,0.2,1.1,0.2,1.8,0.2
		c0.5,0,1-0.1,1.4-0.2s0.8-0.3,1.1-0.5c0.3-0.2,0.5-0.5,0.7-0.8s0.2-0.7,0.2-1.2s-0.1-0.8-0.4-1.2c-0.2-0.3-0.5-0.6-0.9-0.8
		c-0.4-0.2-0.8-0.5-1.3-0.6c-0.5-0.2-1-0.4-1.5-0.6s-1-0.4-1.5-0.7c-0.5-0.3-0.9-0.6-1.3-0.9s-0.7-0.8-0.9-1.3
		c-0.2-0.5-0.3-1.1-0.3-1.9c0-0.6,0.1-1.2,0.4-1.8c0.2-0.6,0.6-1.1,1.1-1.5s1.1-0.8,1.8-1.1c0.7-0.3,1.6-0.4,2.6-0.4
		c0.4,0,0.9,0,1.3,0.1s0.8,0.2,1.2,0.3c0.3,0.1,0.6,0.2,0.9,0.3c0.2,0.1,0.4,0.2,0.6,0.3c0.1,0.1,0.2,0.2,0.3,0.3
		c0,0.1,0.1,0.2,0.1,0.2c0,0.1,0,0.2,0.1,0.3c0,0.1,0,0.3,0,0.5s0,0.4,0,0.5s0,0.3-0.1,0.4c0,0.1-0.1,0.2-0.2,0.2s-0.1,0.1-0.2,0.1
		s-0.3-0.1-0.5-0.2s-0.5-0.3-0.8-0.4s-0.7-0.3-1.1-0.4s-0.9-0.2-1.5-0.2c-0.5,0-0.9,0.1-1.3,0.2s-0.7,0.3-0.9,0.5
		c-0.2,0.2-0.4,0.5-0.6,0.7c-0.1,0.3-0.2,0.6-0.2,0.9c0,0.5,0.1,0.9,0.4,1.2c0.2,0.3,0.6,0.6,0.9,0.8s0.8,0.5,1.3,0.6s1,0.4,1.5,0.6
		s1,0.4,1.5,0.7c0.5,0.2,0.9,0.6,1.3,0.9c0.4,0.4,0.7,0.8,0.9,1.3C410.6,87.7,410.7,88.3,410.7,89z"/>
	<path class="st1" d="M423.4,70.5c0,0.2,0,0.4,0,0.6c0,0.1-0.1,0.2-0.1,0.3c0,0.1-0.1,0.1-0.1,0.2c0,0-0.1,0-0.2,0s-0.2,0-0.3-0.1
		c-0.1-0.1-0.3-0.1-0.5-0.2s-0.4-0.1-0.6-0.2s-0.5-0.1-0.9-0.1s-0.8,0.1-1.1,0.2c-0.3,0.1-0.6,0.4-0.8,0.7c-0.2,0.3-0.3,0.7-0.4,1.2
		s-0.1,1.1-0.1,1.8v1.8h3.6c0.1,0,0.2,0,0.2,0.1c0.1,0,0.1,0.1,0.2,0.2s0.1,0.2,0.1,0.4c0,0.2,0,0.3,0,0.6c0,0.4-0.1,0.7-0.2,0.9
		c-0.1,0.2-0.3,0.3-0.4,0.3h-3.6v14.2c0,0.1,0,0.2-0.1,0.2c0,0.1-0.1,0.1-0.2,0.2c-0.1,0-0.3,0.1-0.5,0.1s-0.4,0-0.7,0s-0.5,0-0.7,0
		s-0.3-0.1-0.5-0.1c-0.1,0-0.2-0.1-0.2-0.2s-0.1-0.1-0.1-0.2V79.2h-2.3c-0.2,0-0.3-0.1-0.4-0.3c-0.1-0.2-0.1-0.5-0.1-0.9
		c0-0.2,0-0.4,0-0.6s0.1-0.3,0.1-0.4s0.1-0.2,0.2-0.2s0.2-0.1,0.2-0.1h2.3V75c0-1.1,0.1-2.1,0.3-2.9c0.2-0.8,0.5-1.5,1-2
		s1-0.9,1.6-1.1c0.7-0.2,1.4-0.4,2.3-0.4c0.4,0,0.8,0,1.2,0.1c0.4,0.1,0.7,0.2,0.9,0.3c0.2,0.1,0.4,0.2,0.4,0.2s0.1,0.2,0.2,0.3
		c0,0.1,0.1,0.3,0.1,0.4C423.4,70.1,423.4,70.3,423.4,70.5z"/>
	<path class="st1" d="M440.1,85.1c0,1.3-0.2,2.5-0.5,3.6s-0.9,2.1-1.6,2.9s-1.6,1.4-2.6,1.9c-1,0.4-2.2,0.7-3.6,0.7
		c-1.3,0-2.5-0.2-3.5-0.6s-1.8-1-2.5-1.7c-0.7-0.8-1.2-1.7-1.5-2.8c-0.3-1.1-0.5-2.3-0.5-3.7c0-1.3,0.2-2.5,0.5-3.6s0.9-2.1,1.5-2.9
		c0.7-0.8,1.6-1.4,2.6-1.9s2.2-0.7,3.6-0.7c1.3,0,2.5,0.2,3.5,0.6s1.8,1,2.5,1.7c0.7,0.8,1.2,1.7,1.5,2.8
		C439.9,82.5,440.1,83.7,440.1,85.1z M437,85.3c0-0.9-0.1-1.7-0.2-2.5c-0.2-0.8-0.4-1.5-0.8-2.1s-0.9-1.1-1.5-1.4s-1.4-0.5-2.4-0.5
		c-0.9,0-1.6,0.2-2.3,0.5c-0.6,0.3-1.2,0.8-1.6,1.3c-0.4,0.6-0.7,1.2-0.9,2c-0.2,0.8-0.3,1.6-0.3,2.6c0,0.9,0.1,1.7,0.2,2.5
		c0.2,0.8,0.4,1.5,0.8,2c0.4,0.6,0.9,1,1.5,1.4c0.6,0.3,1.4,0.5,2.4,0.5c0.9,0,1.6-0.2,2.3-0.5c0.6-0.3,1.2-0.7,1.6-1.3
		c0.4-0.6,0.7-1.2,0.9-2C436.9,87.1,437,86.2,437,85.3z"/>
	<path class="st1" d="M453.9,78.2c0,0.3,0,0.5,0,0.7s0,0.3-0.1,0.4c0,0.1-0.1,0.2-0.1,0.2c-0.1,0.1-0.1,0.1-0.2,0.1s-0.2,0-0.4-0.1
		c-0.1-0.1-0.3-0.1-0.5-0.2s-0.4-0.1-0.6-0.2s-0.4-0.1-0.7-0.1c-0.3,0-0.6,0.1-0.9,0.2s-0.6,0.3-0.9,0.6c-0.3,0.3-0.7,0.6-1,1.1
		s-0.7,1-1.2,1.7v10.7c0,0.1,0,0.2-0.1,0.2c0,0.1-0.1,0.1-0.2,0.2c-0.1,0-0.3,0.1-0.4,0.1s-0.4,0-0.7,0c-0.3,0-0.5,0-0.7,0
		s-0.3-0.1-0.5-0.1c-0.1,0-0.2-0.1-0.2-0.2s-0.1-0.1-0.1-0.2V77.2c0-0.1,0-0.2,0.1-0.2c0-0.1,0.1-0.1,0.2-0.2s0.2-0.1,0.4-0.1
		c0.2,0,0.4,0,0.7,0c0.3,0,0.5,0,0.7,0s0.3,0.1,0.4,0.1c0.1,0.1,0.2,0.1,0.2,0.2s0.1,0.1,0.1,0.2v2.4c0.4-0.6,0.9-1.2,1.3-1.6
		s0.8-0.7,1.1-1c0.3-0.2,0.7-0.4,1-0.5s0.7-0.1,1-0.1c0.2,0,0.3,0,0.5,0s0.4,0.1,0.6,0.1c0.2,0.1,0.4,0.1,0.6,0.2s0.3,0.1,0.4,0.2
		s0.1,0.1,0.1,0.2s0,0.1,0.1,0.2c0,0.1,0,0.2,0,0.4C453.9,77.7,453.9,78,453.9,78.2z"/>
	<path class="st1" d="M481.4,93.4c0,0.1,0,0.2-0.1,0.2c0,0.1-0.1,0.1-0.2,0.2c-0.1,0-0.3,0.1-0.5,0.1s-0.4,0-0.7,0
		c-0.3,0-0.5,0-0.7,0s-0.3-0.1-0.5-0.1c-0.1,0-0.2-0.1-0.2-0.2s-0.1-0.1-0.1-0.2v-9.8c0-0.7-0.1-1.3-0.2-1.9s-0.3-1-0.6-1.5
		c-0.3-0.4-0.6-0.7-1-0.9c-0.4-0.2-0.9-0.3-1.4-0.3c-0.7,0-1.4,0.3-2.1,0.8s-1.5,1.3-2.3,2.3v11.3c0,0.1,0,0.2-0.1,0.2
		c-0.1,0.1-0.1,0.1-0.2,0.2c-0.1,0-0.3,0.1-0.5,0.1s-0.4,0-0.7,0c-0.3,0-0.5,0-0.7,0s-0.4-0.1-0.5-0.1s-0.2-0.1-0.2-0.2
		s-0.1-0.1-0.1-0.2v-9.8c0-0.7-0.1-1.3-0.2-1.9s-0.3-1-0.6-1.5c-0.3-0.4-0.6-0.7-1-0.9c-0.4-0.2-0.9-0.3-1.4-0.3
		c-0.7,0-1.4,0.3-2.1,0.8s-1.5,1.3-2.3,2.3v11.3c0,0.1,0,0.2-0.1,0.2c0,0.1-0.1,0.1-0.2,0.2c-0.1,0-0.3,0.1-0.4,0.1s-0.4,0-0.7,0
		c-0.3,0-0.5,0-0.7,0s-0.3-0.1-0.5-0.1c-0.1,0-0.2-0.1-0.2-0.2s-0.1-0.1-0.1-0.2V77.2c0-0.1,0-0.2,0.1-0.2c0-0.1,0.1-0.1,0.2-0.2
		s0.2-0.1,0.4-0.1c0.2,0,0.4,0,0.7,0c0.3,0,0.5,0,0.7,0s0.3,0.1,0.4,0.1c0.1,0.1,0.2,0.1,0.2,0.2s0.1,0.1,0.1,0.2v2.1
		c0.9-1,1.8-1.8,2.7-2.2c0.9-0.5,1.7-0.7,2.6-0.7c0.7,0,1.3,0.1,1.8,0.2c0.5,0.2,1,0.4,1.4,0.7c0.4,0.3,0.8,0.6,1,1
		c0.3,0.4,0.5,0.8,0.7,1.3c0.5-0.6,1.1-1.1,1.5-1.5c0.5-0.4,1-0.7,1.4-1c0.5-0.3,0.9-0.4,1.3-0.5s0.9-0.2,1.3-0.2
		c1,0,1.9,0.2,2.6,0.5c0.7,0.4,1.3,0.9,1.7,1.5c0.4,0.6,0.8,1.3,0.9,2.2c0.2,0.8,0.3,1.7,0.3,2.6v10.2H481.4z"/>
	<path class="st1" d="M499,93.4c0,0.1-0.1,0.3-0.1,0.3c-0.1,0.1-0.2,0.1-0.4,0.2c-0.2,0-0.4,0.1-0.7,0.1c-0.3,0-0.6,0-0.7-0.1
		c-0.2,0-0.3-0.1-0.4-0.2s-0.1-0.2-0.1-0.3v-1.6c-0.7,0.8-1.5,1.3-2.4,1.8c-0.9,0.4-1.8,0.6-2.8,0.6c-0.9,0-1.6-0.1-2.3-0.3
		c-0.7-0.2-1.3-0.5-1.8-1c-0.5-0.4-0.9-0.9-1.1-1.6c-0.3-0.6-0.4-1.3-0.4-2.1c0-0.9,0.2-1.7,0.6-2.4c0.4-0.7,0.9-1.2,1.6-1.7
		c0.7-0.4,1.5-0.8,2.6-1c1-0.2,2.1-0.3,3.4-0.3h2.2v-1.3c0-0.6-0.1-1.2-0.2-1.7s-0.3-0.9-0.6-1.2c-0.3-0.3-0.7-0.6-1.1-0.7
		c-0.5-0.2-1-0.2-1.7-0.2s-1.4,0.1-2,0.3c-0.6,0.2-1.1,0.4-1.5,0.6s-0.8,0.4-1.1,0.6c-0.3,0.2-0.5,0.3-0.7,0.3c-0.1,0-0.2,0-0.2-0.1
		c-0.1,0-0.1-0.1-0.2-0.2s-0.1-0.2-0.1-0.4c0-0.1,0-0.3,0-0.5c0-0.3,0-0.5,0.1-0.7c0-0.2,0.1-0.3,0.3-0.5c0.2-0.2,0.4-0.3,0.8-0.5
		s0.8-0.4,1.4-0.6c0.5-0.2,1.1-0.3,1.7-0.4s1.2-0.2,1.9-0.2c1.2,0,2.2,0.1,3,0.4s1.5,0.7,2,1.2s0.9,1.1,1.1,1.9s0.3,1.6,0.3,2.6
		v10.9H499z M496,86h-2.5c-0.8,0-1.5,0.1-2.1,0.2s-1.1,0.3-1.5,0.6c-0.4,0.3-0.7,0.6-0.9,1c-0.2,0.4-0.3,0.8-0.3,1.3
		c0,0.8,0.3,1.5,0.8,2s1.3,0.7,2.2,0.7c0.8,0,1.5-0.2,2.2-0.6s1.4-1,2.1-1.8L496,86L496,86z"/>
	<path class="st1" d="M518.2,76.7c0.4,0,0.6,0.1,0.7,0.2c0.1,0.2,0.2,0.4,0.2,0.7v15.7c0,0.1,0,0.2-0.1,0.2c0,0.1-0.1,0.1-0.2,0.2
		c-0.1,0-0.3,0.1-0.5,0.1s-0.4,0-0.7,0s-0.5,0-0.7,0s-0.3-0.1-0.5-0.1c-0.1,0-0.2-0.1-0.2-0.2s-0.1-0.1-0.1-0.2V79.2h-8.4v9
		c0,1.1,0.2,2,0.5,2.5c0.3,0.6,0.9,0.9,1.8,0.9c0.3,0,0.5,0,0.7-0.1s0.4-0.1,0.6-0.2s0.3-0.1,0.4-0.2s0.2-0.1,0.3-0.1
		c0.1,0,0.1,0,0.2,0c0.1,0,0.1,0.1,0.1,0.2s0.1,0.2,0.1,0.3c0,0.1,0,0.3,0,0.5c0,0.4,0,0.6-0.1,0.8c0,0.2-0.1,0.3-0.2,0.5
		c-0.1,0.1-0.2,0.2-0.4,0.3c-0.2,0.1-0.4,0.2-0.7,0.2c-0.2,0.1-0.5,0.1-0.8,0.1s-0.6,0.1-0.8,0.1c-0.8,0-1.6-0.1-2.2-0.3
		c-0.6-0.2-1.1-0.6-1.5-1s-0.7-1-0.8-1.7c-0.2-0.7-0.3-1.5-0.3-2.4v-9.5h-2.3c-0.2,0-0.3-0.1-0.4-0.3c-0.1-0.2-0.2-0.5-0.2-0.9
		c0-0.2,0-0.4,0-0.6s0.1-0.3,0.1-0.4s0.1-0.2,0.2-0.2s0.2-0.1,0.3-0.1h2.2v-3.8c0-0.1,0-0.2,0.1-0.2c0-0.1,0.1-0.1,0.2-0.2
		s0.3-0.1,0.5-0.1s0.4,0,0.7,0c0.3,0,0.5,0,0.7,0s0.3,0.1,0.4,0.1c0.1,0.1,0.2,0.1,0.2,0.2s0.1,0.2,0.1,0.2v3.8L518.2,76.7
		L518.2,76.7z M519.5,71.7c0,0.7-0.1,1.2-0.4,1.4c-0.3,0.3-0.7,0.4-1.5,0.4c-0.7,0-1.2-0.1-1.4-0.4c-0.3-0.2-0.4-0.7-0.4-1.4
		c0-0.7,0.1-1.2,0.4-1.4c0.3-0.3,0.8-0.4,1.5-0.4s1.2,0.1,1.4,0.4S519.5,71,519.5,71.7z"/>
	<path class="st1" d="M539.7,85.1c0,1.3-0.2,2.5-0.5,3.6s-0.9,2.1-1.6,2.9c-0.7,0.8-1.6,1.4-2.6,1.9c-1,0.4-2.2,0.7-3.6,0.7
		c-1.3,0-2.5-0.2-3.5-0.6s-1.8-1-2.5-1.7c-0.7-0.8-1.2-1.7-1.5-2.8c-0.3-1.1-0.5-2.3-0.5-3.7c0-1.3,0.2-2.5,0.5-3.6s0.9-2.1,1.5-2.9
		c0.7-0.8,1.6-1.4,2.6-1.9c1-0.4,2.2-0.7,3.6-0.7c1.3,0,2.5,0.2,3.5,0.6s1.8,1,2.5,1.7c0.7,0.8,1.2,1.7,1.5,2.8
		C539.5,82.5,539.7,83.7,539.7,85.1z M536.6,85.3c0-0.9-0.1-1.7-0.2-2.5c-0.2-0.8-0.4-1.5-0.8-2.1s-0.9-1.1-1.5-1.4
		s-1.4-0.5-2.4-0.5c-0.9,0-1.6,0.2-2.3,0.5c-0.6,0.3-1.2,0.8-1.6,1.3c-0.4,0.6-0.7,1.2-0.9,2s-0.3,1.6-0.3,2.6
		c0,0.9,0.1,1.7,0.2,2.5c0.2,0.8,0.4,1.5,0.8,2c0.4,0.6,0.9,1,1.5,1.4c0.6,0.3,1.4,0.5,2.4,0.5c0.9,0,1.6-0.2,2.3-0.5
		c0.6-0.3,1.2-0.7,1.6-1.3c0.4-0.6,0.7-1.2,0.9-2C536.5,87.1,536.6,86.2,536.6,85.3z"/>
	<path class="st1" d="M558,93.4c0,0.1,0,0.2-0.1,0.2c0,0.1-0.1,0.1-0.2,0.2c-0.1,0-0.3,0.1-0.5,0.1s-0.4,0-0.7,0s-0.5,0-0.7,0
		s-0.3-0.1-0.4-0.1s-0.2-0.1-0.2-0.2c-0.1-0.1-0.1-0.1-0.1-0.2v-9.5c0-0.9-0.1-1.7-0.2-2.2c-0.1-0.6-0.4-1-0.6-1.5
		c-0.3-0.4-0.6-0.7-1.1-0.9c-0.4-0.2-0.9-0.3-1.5-0.3c-0.7,0-1.5,0.3-2.2,0.8s-1.5,1.3-2.3,2.3v11.3c0,0.1,0,0.2-0.1,0.2
		c0,0.1-0.1,0.1-0.2,0.2c-0.1,0-0.3,0.1-0.4,0.1s-0.4,0-0.7,0s-0.5,0-0.7,0s-0.3-0.1-0.5-0.1c-0.1,0-0.2-0.1-0.2-0.2
		s-0.1-0.1-0.1-0.2V77.2c0-0.1,0-0.2,0.1-0.2c0-0.1,0.1-0.1,0.2-0.2c0.1-0.1,0.2-0.1,0.4-0.1s0.4,0,0.7,0s0.5,0,0.7,0
		s0.3,0.1,0.4,0.1c0.1,0.1,0.2,0.1,0.2,0.2s0.1,0.1,0.1,0.2v2.1c0.9-1,1.8-1.8,2.7-2.2c0.9-0.5,1.8-0.7,2.7-0.7c1.1,0,2,0.2,2.7,0.5
		c0.7,0.4,1.3,0.9,1.8,1.5s0.8,1.3,1,2.2c0.2,0.8,0.3,1.8,0.3,3v9.8H558z"/>
</g>
</svg>
